<svg width="14" height="14" viewBox="0 0 14 14" fill="none" xmlns="http://www.w3.org/2000/svg">
<g clip-path="url(#clip0_1277_12215)">
<path d="M6.99942 9.33342C6.87984 9.33342 6.7655 9.28442 6.68325 9.19808L3.62075 5.98975C3.35534 5.71208 3.5525 5.25008 3.93692 5.25008H5.54109V1.89591C5.54109 1.494 5.86834 1.16675 6.27025 1.16675H7.72859C8.1305 1.16675 8.45775 1.494 8.45775 1.89591V5.25008H10.0619C10.4463 5.25008 10.6435 5.71208 10.3781 5.98975L7.31559 9.19808C7.23334 9.28442 7.119 9.33342 6.99942 9.33342Z" fill="#3E3E3E"/>
<path d="M12.9792 12.8333H1.02083C0.457917 12.8333 0 12.3754 0 11.8125V11.5208C0 10.9579 0.457917 10.5 1.02083 10.5H12.9792C13.5421 10.5 14 10.9579 14 11.5208V11.8125C14 12.3754 13.5421 12.8333 12.9792 12.8333Z" fill="#3E3E3E"/>
</g>
<defs>
<clipPath id="clip0_1277_12215">
<rect width="14" height="14" fill="white"/>
</clipPath>
</defs>
</svg>
