<svg width="23" height="23" viewBox="0 0 23 23" fill="none" xmlns="http://www.w3.org/2000/svg">
<path d="M15.8126 5.27083C16.3209 5.27083 16.8084 5.0689 17.1679 4.70945C17.5273 4.35001 17.7292 3.8625 17.7292 3.35417C17.7292 2.84583 17.5273 2.35832 17.1679 1.99888C16.8084 1.63943 16.3209 1.4375 15.8126 1.4375C15.3043 1.4375 14.8167 1.63943 14.4573 1.99888C14.0978 2.35832 13.8959 2.84583 13.8959 3.35417C13.8959 3.8625 14.0978 4.35001 14.4573 4.70945C14.8167 5.0689 15.3043 5.27083 15.8126 5.27083ZM12.3626 18.5917L13.3209 14.375L15.3334 16.2917V22.0417H17.2501V14.8542L15.2376 12.9375L15.8126 10.0625C16.4692 10.815 17.2793 11.4182 18.1884 11.8314C19.0976 12.2447 20.0847 12.4585 21.0834 12.4583V10.5417C19.3967 10.5704 17.8251 9.68875 16.9626 8.24167L16.0042 6.70833C15.6592 6.13333 15.0459 5.75 14.3751 5.75C14.0876 5.75 13.8959 5.84583 13.6084 5.84583L8.62508 7.95417V12.4583H10.5417V9.2L12.2667 8.52917L10.7334 16.2917L6.03758 15.3333L5.65425 17.25L12.3626 18.5917ZM3.83341 8.625C3.57925 8.625 3.33549 8.52403 3.15577 8.34431C2.97605 8.16459 2.87508 7.92083 2.87508 7.66667C2.87508 7.4125 2.97605 7.16875 3.15577 6.98902C3.33549 6.8093 3.57925 6.70833 3.83341 6.70833H6.70842V8.625H3.83341ZM4.79175 4.79167C4.53758 4.79167 4.29383 4.6907 4.1141 4.51098C3.93438 4.33125 3.83341 4.0875 3.83341 3.83333C3.83341 3.57917 3.93438 3.33541 4.1141 3.15569C4.29383 2.97597 4.53758 2.875 4.79175 2.875H9.58342V4.79167H4.79175ZM2.87508 12.4583C2.62092 12.4583 2.37716 12.3574 2.19744 12.1776C2.01771 11.9979 1.91675 11.7542 1.91675 11.5C1.91675 11.2458 2.01771 11.0021 2.19744 10.8224C2.37716 10.6426 2.62092 10.5417 2.87508 10.5417H6.70842V12.4583H2.87508Z" fill="#3E3E3E"/>
</svg>
